<svg version="1.1" xmlns="http://www.w3.org/2000/svg" viewBox="0 0 910.0544939171523 539.6052899958379" width="1820.1089878343046" height="1079.2105799916758">
  <!-- svg-source:excalidraw -->
  
  <defs>
    <style>
      @font-face {
        font-family: "Virgil";
        src: url("https://excalidraw.com/Virgil.woff2");
      }
      @font-face {
        font-family: "Cascadia";
        src: url("https://excalidraw.com/Cascadia.woff2");
      }
    </style>
  </defs>
  <rect x="0" y="0" width="910.0544939171523" height="539.6052899958379" fill="#ffffff"></rect><g stroke-linecap="round" transform="translate(225.73046875 23.42169624583795) rotate(0 16.603515625 14.314453125)"><path d="M20.83 0.93 C24.28 1.77, 29.22 4.46, 31.3 6.99 C33.37 9.53, 33.81 13.08, 33.28 16.13 C32.74 19.19, 30.72 23.13, 28.08 25.31 C25.43 27.49, 21.13 29.25, 17.42 29.21 C13.71 29.17, 8.59 27.02, 5.82 25.07 C3.05 23.13, 1.43 20.57, 0.81 17.52 C0.19 14.48, 0.43 9.57, 2.1 6.82 C3.76 4.07, 7.09 1.83, 10.8 1.04 C14.5 0.25, 21.44 1.69, 24.34 2.08 C27.25 2.46, 28.21 3.35, 28.22 3.36 M23.56 3.15 C26.52 4.41, 30.26 7.25, 31.91 9.68 C33.57 12.1, 34.7 14.71, 33.5 17.71 C32.3 20.71, 27.93 25.98, 24.7 27.67 C21.47 29.36, 17.74 28.72, 14.14 27.85 C10.55 26.97, 5.55 24.62, 3.13 22.43 C0.71 20.23, -0.53 17.54, -0.38 14.67 C-0.22 11.8, 1.85 7.68, 4.05 5.2 C6.25 2.72, 9.31 0.55, 12.81 -0.2 C16.31 -0.95, 23.27 0.3, 25.06 0.68 C26.86 1.06, 23.6 1.61, 23.6 2.07" stroke="#000000" stroke-width="1" fill="none"></path></g><g stroke-linecap="round" transform="translate(222.32421875 54.55841499583795) rotate(0 20.505859375 30.810546875)"><path d="M21.38 0.58 C27.21 8.07, 31.36 15.06, 42.12 29.79 M22 -0.59 C26.33 7.62, 31.44 14.62, 40.53 31.65 M39.53 30.58 C37.16 40.45, 30.97 50.71, 19.54 60.17 M40.59 30.79 C34.62 41.42, 27.25 53.12, 20.74 61.01 M20.96 63.12 C12.39 52.14, 3.34 40.02, 0.68 30.06 M20.77 61.93 C13.03 49.76, 5.92 39.95, -0.04 30.07 M1.06 31.59 C8.02 17.57, 15.16 7.69, 19.99 1.51 M-0.07 30.93 C8.28 18.52, 17.18 7.18, 21.4 0.51" stroke="#000000" stroke-width="1" fill="none"></path></g><g stroke-linecap="round"><g transform="translate(218.47265625 53.03107124583795) rotate(0 12.494822521135234 12.157331508807857)"><path d="M-0.6 0.91 C3.77 4.83, 21.23 20.25, 25.59 23.98 M1.28 0.34 C5.65 3.86, 21.21 18.13, 25.22 22.16" stroke="#000000" stroke-width="1" fill="none"></path></g></g><g stroke-linecap="round"><g transform="translate(255.8046875 73.78888374583795) rotate(0 8.520979416109583 -14.116666759178045)"><path d="M0.72 0.49 C3.65 -4.48, 14.93 -23.96, 17.41 -28.72 M-0.36 -0.3 C2.49 -4.6, 13.74 -23.08, 16.78 -27.47" stroke="#000000" stroke-width="1" fill="none"></path></g></g><g stroke-linecap="round"><g transform="translate(278.45703930053855 55.47061629457397) rotate(0 189.57903397222168 1.2547807757606222)"><path d="M0.26 0 C63.44 0.41, 317.07 3.07, 380.22 3.55 M-1.06 -1.04 C61.95 -0.5, 316.63 0.76, 379.88 1.61" stroke="#000000" stroke-width="1" fill="none"></path></g><g transform="translate(278.45703930053855 55.47061629457397) rotate(0 189.57903397222168 1.2547807757606222)"><path d="M351.6 13.55 C363.31 7.7, 373.47 5.52, 380.57 2.14 M351.93 10.92 C361.13 8.87, 368.04 5.74, 380.17 1.07" stroke="#000000" stroke-width="1" fill="none"></path></g><g transform="translate(278.45703930053855 55.47061629457397) rotate(0 189.57903397222168 1.2547807757606222)"><path d="M351.78 -6.97 C363.61 -4.66, 373.7 1.32, 380.57 2.14 M352.11 -9.6 C361.09 -5.35, 367.95 -2.18, 380.17 1.07" stroke="#000000" stroke-width="1" fill="none"></path></g></g><g transform="translate(299.5078125 15.68732124583795) rotate(0 182 12.5)"><text x="0" y="18" font-family="Virgil, Segoe UI Emoji" font-size="20px" fill="#000000" text-anchor="start" style="white-space: pre;" direction="ltr">Generate a new service account key</text></g><g stroke-linecap="round" transform="translate(679.4765625 15.81232124583795) rotate(0 103.671875 59.009765625)"><path d="M-1.58 -0.15 C54.85 0.91, 108.49 1.13, 207.18 -0.92 M0.83 -0.02 C48.76 1.63, 98.13 0.88, 207.07 0.4 M207.63 1.36 C206.74 25.46, 207.6 51.34, 207.83 119.85 M207.7 -0.92 C207.28 26.67, 208.08 53.89, 208.29 117.17 M205.69 118.59 C142.8 118.29, 79.8 120.29, 0.72 117.67 M206.71 117.54 C148.76 119.32, 88.28 119.31, 0.8 118.87 M0.29 116.32 C0.29 80.65, -1.51 46.67, 0.73 0.53 M0.18 117.45 C0.53 92.88, 1.52 69.47, -0.77 0.24" stroke="#000000" stroke-width="1" fill="none"></path></g><g transform="translate(720.75390625 63.85528999583795) rotate(0 61.5 12.5)"><text x="61.5" y="18" font-family="Virgil, Segoe UI Emoji" font-size="20px" fill="#000000" text-anchor="middle" style="white-space: pre;" direction="ltr">GCP console</text></g><g stroke-linecap="round"><g transform="translate(660.570670704916 86.29972468842163) rotate(0 -192.69447020543726 -1.2530434164608266)"><path d="M0.88 0.02 C-63.51 -0.44, -320.92 -2.31, -385.3 -2.52 M-0.12 -1.02 C-64.76 -1.37, -321.9 -1.03, -386.26 -1.43" stroke="#000000" stroke-width="1" fill="none"></path></g><g transform="translate(660.570670704916 86.29972468842163) rotate(0 -192.69447020543726 -1.2530434164608266)"><path d="M-358.03 -11.68 C-370.32 -7.76, -379.13 -2.41, -387 -0.09 M-358.36 -10.92 C-369.32 -8.06, -380.68 -2.49, -387.24 -0.67" stroke="#000000" stroke-width="1" fill="none"></path></g><g transform="translate(660.570670704916 86.29972468842163) rotate(0 -192.69447020543726 -1.2530434164608266)"><path d="M-358.07 8.84 C-370.38 4.84, -379.17 2.27, -387 -0.09 M-358.4 9.6 C-369.29 4.52, -380.63 2.15, -387.24 -0.67" stroke="#000000" stroke-width="1" fill="none"></path></g></g><g transform="translate(272.21875 94.03888374583795) rotate(0 202 12.5)"><text x="0" y="18" font-family="Virgil, Segoe UI Emoji" font-size="20px" fill="#000000" text-anchor="start" style="white-space: pre;" direction="ltr">Download and Store in the local machine</text></g><g stroke-linecap="round" transform="translate(595.3622908129767 236.49200874583795) rotate(0 101.54346396851167 49.447265625)"><path d="M123.4 1.1 C136.91 1.84, 152.09 6.77, 163.4 11.24 C174.72 15.72, 184.65 21.87, 191.29 27.95 C197.92 34.03, 202.6 40.79, 203.21 47.72 C203.83 54.64, 200.69 62.88, 194.95 69.53 C189.22 76.18, 179.83 83, 168.81 87.61 C157.79 92.22, 142.9 95.28, 128.84 97.18 C114.78 99.09, 98.5 100.08, 84.43 99.03 C70.35 97.97, 56.14 95.14, 44.38 90.87 C32.61 86.59, 21.18 79.7, 13.84 73.35 C6.49 67, 1.44 59.59, 0.32 52.76 C-0.79 45.92, 2.12 38.7, 7.15 32.34 C12.18 25.98, 20.33 19.58, 30.48 14.58 C40.64 9.59, 54.55 4.58, 68.1 2.36 C81.64 0.14, 101.05 1.3, 111.77 1.25 C122.49 1.19, 127.79 1.41, 132.43 2.04 C137.07 2.67, 140.23 4.15, 139.59 5.03 M115.59 1.75 C129.25 1.83, 145.37 4.18, 157.39 7.94 C169.41 11.71, 180.43 18.07, 187.73 24.34 C195.03 30.61, 199.46 38.51, 201.18 45.56 C202.9 52.62, 202.52 60.15, 198.06 66.68 C193.59 73.21, 184.61 79.87, 174.39 84.73 C164.16 89.6, 150.17 93.36, 136.71 95.86 C123.25 98.35, 107.84 100.15, 93.63 99.71 C79.41 99.27, 64.21 96.92, 51.43 93.21 C38.65 89.51, 25.19 83.54, 16.93 77.46 C8.67 71.39, 3.83 63.69, 1.87 56.76 C-0.08 49.84, 1.44 42.75, 5.19 35.92 C8.94 29.08, 15.23 20.88, 24.36 15.76 C33.49 10.65, 46.63 8.03, 59.96 5.2 C73.3 2.38, 95.04 -0.2, 104.38 -1.21 C113.72 -2.21, 114.12 -1.35, 116 -0.8 C117.87 -0.26, 115.82 0.88, 115.64 2.06" stroke="#000000" stroke-width="1" fill="none"></path></g><g transform="translate(609.0403592271698 278.79982960145304) rotate(0 87.31933677182553 10.013685409613004)"><text x="87.31933677182549" y="14.027370819226029" font-family="Virgil, Segoe UI Emoji" font-size="16.02189665538082px" fill="#000000" text-anchor="middle" style="white-space: pre;" direction="ltr">Google Cloud Storage</text></g><g stroke-linecap="round" transform="translate(140.85046477451397 298.14239937083795) rotate(0 72.07574417524302 36.8203125)"><path d="M67.33 -0.63 C78.65 -1.33, 94.4 1.59, 105.33 4.56 C116.26 7.53, 126.57 12.15, 132.93 17.2 C139.29 22.26, 142.85 28.81, 143.51 34.88 C144.16 40.96, 142.18 48.43, 136.86 53.67 C131.54 58.91, 121.54 63.01, 111.57 66.34 C101.6 69.67, 88.75 72.98, 77.03 73.64 C65.31 74.3, 51.94 73.01, 41.27 70.3 C30.59 67.59, 19.77 62.6, 12.99 57.39 C6.21 52.19, 1.65 45.03, 0.59 39.08 C-0.46 33.13, 1.66 26.96, 6.68 21.69 C11.71 16.43, 20.83 11.23, 30.74 7.49 C40.64 3.75, 58.02 0.65, 66.11 -0.73 C74.21 -2.1, 75.07 -1.35, 79.31 -0.76 C83.54 -0.18, 91.67 2.06, 91.52 2.8 M51.06 1.71 C61.54 -0.59, 75.63 -1.3, 87.06 0.26 C98.49 1.81, 110.52 6.63, 119.62 11.04 C128.72 15.45, 138.08 21.02, 141.66 26.71 C145.23 32.4, 143.67 39.46, 141.07 45.17 C138.48 50.88, 133.96 56.75, 126.09 60.97 C118.23 65.18, 105.52 68.57, 93.88 70.45 C82.25 72.32, 67.92 73.01, 56.29 72.21 C44.66 71.41, 32.75 69.8, 24.11 65.66 C15.47 61.51, 8.5 53.41, 4.46 47.33 C0.43 41.25, -2.51 34.95, -0.1 29.17 C2.31 23.39, 11.03 16.97, 18.92 12.65 C26.81 8.34, 42 5.27, 47.23 3.28 C52.45 1.29, 49.46 0.88, 50.28 0.71 C51.09 0.53, 51.78 1.65, 52.13 2.24" stroke="#000000" stroke-width="1" fill="none"></path></g><g transform="translate(183.44960848163214 325.02256080237095) rotate(0 30.539736992567214 7.485229655040996)"><text x="30.539736992567185" y="10.97045931008196" font-family="Virgil, Segoe UI Emoji" font-size="11.976367448065572px" fill="#000000" text-anchor="middle" style="white-space: pre;" direction="ltr">Cloud SQL</text></g><g transform="translate(324.65234375 357.31036812083795) rotate(0 126 12.5)"><text x="126" y="18" font-family="Virgil, Segoe UI Emoji" font-size="20px" fill="#000000" text-anchor="middle" style="white-space: pre;" direction="ltr">Google Kubernetes Engine</text></g><g stroke-linecap="round" transform="translate(318.05078125 344.00763374583795) rotate(0 133.27734375 92.798828125)"><path d="M0.45 -0.98 C53.54 -2.74, 108.02 -1.69, 267.88 1.18 M0.56 0.26 C84.99 -1.31, 170.5 -1.33, 265.97 -0.27 M265.15 -1.36 C268.72 73.49, 266.12 145.29, 264.93 186.71 M265.66 -0.31 C266.42 59.51, 265.36 118.85, 266.61 185.24 M266.84 186.1 C162.75 187.96, 57.54 188.5, -0.15 186.7 M266.7 184.87 C196.45 188.11, 127.6 187.98, -0.22 185.62 M0.6 183.91 C0.29 137.93, 0.36 89.75, -0.67 -1.23 M-0.51 185.88 C0.03 135.52, -0.74 85.17, 0.3 0.59" stroke="#000000" stroke-width="1" fill="none"></path></g><g stroke-linecap="round" transform="translate(329.2265625 394.32403999583795) rotate(0 53.271484375 43.08984375)"><path d="M45.49 0.13 C54.39 -1.58, 66.81 -0.34, 75.52 2.98 C84.22 6.31, 92.55 13.33, 97.71 20.07 C102.87 26.81, 106.36 35.92, 106.46 43.42 C106.56 50.91, 103.33 58.59, 98.31 65.05 C93.29 71.51, 84.74 78.78, 76.34 82.17 C67.94 85.56, 57.29 86.21, 47.93 85.4 C38.56 84.59, 27.55 82.08, 20.13 77.32 C12.71 72.56, 6.36 64.18, 3.41 56.82 C0.45 49.46, 0.16 40.63, 2.41 33.18 C4.67 25.73, 10.13 17.58, 16.94 12.12 C23.76 6.67, 36.83 2.61, 43.3 0.44 C49.76 -1.73, 52.17 -1.12, 55.73 -0.87 C59.29 -0.62, 64.85 1.02, 64.68 1.95 M55.41 -0.34 C64.4 -0.86, 77.29 2.62, 85.34 7.22 C93.4 11.82, 100.56 19.81, 103.75 27.28 C106.95 34.74, 106.47 44.58, 104.5 52 C102.54 59.43, 98.59 66.4, 91.96 71.83 C85.32 77.26, 74.17 82.41, 64.69 84.58 C55.21 86.75, 43.65 87.45, 35.1 84.85 C26.55 82.26, 18.97 74.92, 13.38 68.99 C7.79 63.06, 3.02 56.87, 1.56 49.27 C0.1 41.68, 0.49 30.34, 4.6 23.41 C8.72 16.47, 18.19 11.67, 26.23 7.65 C34.26 3.64, 47.7 0.51, 52.82 -0.68 C57.94 -1.87, 56.33 0.19, 56.97 0.51 C57.61 0.82, 56.61 0.41, 56.64 1.22" stroke="#000000" stroke-width="1" fill="none"></path></g><g transform="translate(337.3359375 422.26935249583795) rotate(0 45 12.5)"><text x="45" y="18" font-family="Virgil, Segoe UI Emoji" font-size="20px" fill="#000000" text-anchor="middle" style="white-space: pre;" direction="ltr">pod (dev)</text></g><g stroke-linecap="round" transform="translate(446.33203125 439.58575874583795) rotate(0 58.69921875 36.802734375)"><path d="M75.27 0.85 C85.03 2.07, 96.31 6.91, 103.3 12.05 C110.28 17.19, 115.56 24.93, 117.18 31.7 C118.8 38.47, 117.48 46.78, 113 52.69 C108.52 58.59, 99.03 63.77, 90.29 67.13 C81.54 70.49, 70.72 72.63, 60.54 72.83 C50.37 73.02, 38.36 71.46, 29.21 68.3 C20.07 65.14, 10.51 59.8, 5.69 53.88 C0.88 47.96, -0.6 39.4, 0.31 32.78 C1.22 26.16, 4.96 19.16, 11.16 14.18 C17.35 9.19, 27.38 5.24, 37.5 2.86 C47.61 0.49, 63.92 -0.33, 71.84 -0.07 C79.77 0.19, 81.91 3.36, 85.05 4.42 C88.19 5.49, 91.1 5.78, 90.67 6.33 M40.99 1.63 C50.33 -0.7, 63.21 -0.04, 73.43 1.76 C83.64 3.55, 95.18 7.54, 102.27 12.43 C109.37 17.31, 114.14 24.76, 116.02 31.06 C117.9 37.36, 117.17 44.51, 113.56 50.22 C109.96 55.93, 102.72 61.69, 94.41 65.32 C86.11 68.95, 74.25 71.12, 63.73 72 C53.21 72.88, 40.61 73.21, 31.28 70.6 C21.96 68, 13.05 62.47, 7.79 56.36 C2.53 50.25, -0.54 40.91, -0.28 33.93 C-0.02 26.95, 3.5 19.85, 9.34 14.5 C15.18 9.15, 29.65 3.88, 34.76 1.85 C39.87 -0.17, 38.96 2.45, 39.98 2.34 C40.99 2.24, 40.59 0.88, 40.85 1.23" stroke="#000000" stroke-width="1" fill="none"></path></g><g transform="translate(457.0078125 460.19903999583795) rotate(0 50 12.5)"><text x="50" y="18" font-family="Virgil, Segoe UI Emoji" font-size="20px" fill="#000000" text-anchor="middle" style="white-space: pre;" direction="ltr">pod (prod)</text></g><g transform="translate(53.5625 293.59747749583795) rotate(0 11 12.5)"><text x="0" y="18" font-family="Virgil, Segoe UI Emoji" font-size="20px" fill="#000000" text-anchor="start" style="white-space: pre;" direction="ltr">....</text></g><g stroke-linecap="round"><g transform="translate(228.2040686881794 118.5002907810109) rotate(0 -73.24635301567943 84.50239056395719)"><path d="M-0.39 -1.1 C-25.08 27.29, -122.98 141.76, -147.53 170.1 M1.61 0.94 C-23.23 28.98, -123.14 140.04, -148.1 168.2" stroke="#000000" stroke-width="1" fill="none"></path></g><g transform="translate(228.2040686881794 118.5002907810109) rotate(0 -73.24635301567943 84.50239056395719)"><path d="M-138.79 141.56 C-140.21 151, -146.01 161.38, -147.55 168.11 M-137.76 140.61 C-139.86 146.18, -141.16 153.44, -147.53 167.6" stroke="#000000" stroke-width="1" fill="none"></path></g><g transform="translate(228.2040686881794 118.5002907810109) rotate(0 -73.24635301567943 84.50239056395719)"><path d="M-123.49 155.23 C-130.25 159.83, -141.41 165.43, -147.55 168.11 M-122.46 154.28 C-128.07 156.77, -132.76 161, -147.53 167.6" stroke="#000000" stroke-width="1" fill="none"></path></g></g><g stroke-linecap="round"><g transform="translate(241.4765625 131.92169624583795) rotate(0 -13.60174157079308 79.90312374576925)"><path d="M0.44 0.89 C-4.03 27.43, -22.07 132.07, -26.5 158.43 M-0.79 0.31 C-5.47 27.05, -23.3 132.85, -27.64 159.5" stroke="#000000" stroke-width="1" fill="none"></path></g><g transform="translate(241.4765625 131.92169624583795) rotate(0 -13.60174157079308 79.90312374576925)"><path d="M-31.66 129.38 C-33.05 139.57, -30.25 150.82, -27.48 160.34 M-32.31 130.09 C-31.65 137.19, -30.05 144.62, -26.93 159.37" stroke="#000000" stroke-width="1" fill="none"></path></g><g transform="translate(241.4765625 131.92169624583795) rotate(0 -13.60174157079308 79.90312374576925)"><path d="M-11.42 132.75 C-19.35 141.92, -23.12 152.08, -27.48 160.34 M-12.07 133.46 C-16.43 139.76, -19.86 146.36, -26.93 159.37" stroke="#000000" stroke-width="1" fill="none"></path></g></g><g stroke-linecap="round"><g transform="translate(252.98828125 120.99200874583795) rotate(0 72.62271156076343 106.19873398598284)"><path d="M0.25 0.45 C24.63 35.8, 121.76 177.49, 146.32 212.76 M-1.08 -0.37 C23.11 34.61, 120.45 175.53, 145.18 211.18" stroke="#000000" stroke-width="1" fill="none"></path></g><g transform="translate(252.98828125 120.99200874583795) rotate(0 72.62271156076343 106.19873398598284)"><path d="M121.44 193.23 C129.97 200.58, 136.24 205.83, 145.99 209.33 M120.25 194.33 C125.36 197.59, 131.62 201.35, 145.07 211.05" stroke="#000000" stroke-width="1" fill="none"></path></g><g transform="translate(252.98828125 120.99200874583795) rotate(0 72.62271156076343 106.19873398598284)"><path d="M138.32 181.55 C141.77 192.49, 142.91 201.3, 145.99 209.33 M137.13 182.65 C138.53 188.41, 141.18 194.66, 145.07 211.05" stroke="#000000" stroke-width="1" fill="none"></path></g></g><g stroke-linecap="round"><g transform="translate(263.21875 106.49200874583795) rotate(0 164.38085538856689 75.60639901049436)"><path d="M-0.95 -0.79 C53.91 24.42, 274.69 126.87, 329.71 152.01 M0.76 1.4 C55.43 26.22, 274.32 125.46, 328.9 150.35" stroke="#000000" stroke-width="1" fill="none"></path></g><g transform="translate(263.21875 106.49200874583795) rotate(0 164.38085538856689 75.60639901049436)"><path d="M297.67 148.49 C310.89 148.63, 317.99 148.73, 327.91 150.38 M299.61 147.68 C306.73 149.28, 313.35 149.22, 329.39 149.36" stroke="#000000" stroke-width="1" fill="none"></path></g><g transform="translate(263.21875 106.49200874583795) rotate(0 164.38085538856689 75.60639901049436)"><path d="M306.16 129.81 C316.54 136.38, 320.69 142.97, 327.91 150.38 M308.1 129 C313.28 135.07, 317.83 139.55, 329.39 149.36" stroke="#000000" stroke-width="1" fill="none"></path></g></g><g transform="translate(10 192.75763374583795) rotate(0 329 12.5)"><text x="0" y="18" font-family="Virgil, Segoe UI Emoji" font-size="20px" fill="#c92a2a" text-anchor="start" style="white-space: pre;" direction="ltr">Impersonate the service account by generating a short-lived token</text></g><g stroke-linecap="round"><g transform="translate(353.62109375 131.21075874583795) rotate(0 272.8542043995112 -58.52767641816288)"><path d="M-0.72 0.74 C90.55 -18.41, 455.22 -96.5, 546.43 -116 M1.1 0.09 C92.34 -19.33, 454.83 -98.05, 545.65 -117.8" stroke="#c92a2a" stroke-width="1" fill="none"></path></g></g><g stroke-linecap="round"><g transform="translate(325.5625 10.13653999583795) rotate(0 284.37680036909876 75.11706411374732)"><path d="M-1.14 0.6 C93.66 25.21, 474.96 124.15, 569.89 148.73 M0.47 -0.14 C95.11 25.21, 475.02 125.48, 569.52 150.37" stroke="#c92a2a" stroke-width="1" fill="none"></path></g></g></svg>